<svg width="134" height="51" viewBox="0 0 134 51" fill="none" xmlns="http://www.w3.org/2000/svg">
<g clip-path="url(#clip0_248_2375)">
<path d="M21.7896 19.0068C21.7896 14.6778 18.5096 11.1689 14.199 11.1689C9.88837 11.1689 6.6084 14.6778 6.6084 19.0068V34.6823H8.5062C8.5062 31.4357 11.0554 28.8042 14.199 28.8042C17.3426 28.8042 19.8917 31.4364 19.8917 34.6823H21.7896V19.0068Z" fill="#199BFA"/>
<path fill-rule="evenodd" clip-rule="evenodd" d="M32.3569 9.86572L27.4829 34.6836H31.811L32.7525 29.2344H38.1305L39.072 34.6836H43.5261L38.6513 9.86572H32.3569ZM33.3573 25.8322L35.4411 13.857L37.525 25.8322H33.3573Z" fill="#199BFA"/>
<path d="M53.1633 28.9903C53.1633 30.7604 52.1883 31.6284 50.8772 31.6284C49.5661 31.6284 48.9949 30.8651 48.9949 29.2331V16.5293H44.8264V29.7882C44.8264 33.3285 46.5743 34.9946 49.1293 34.9946C51.2132 34.9946 52.4907 33.9183 53.1633 32.4257V34.6816H57.3318V16.5293H53.1633V28.9903Z" fill="#199BFA"/>
<path d="M59.8069 12.8853H63.9747V16.5303H66.832V19.6889H63.9747V29.6151C63.9747 30.8648 64.4787 31.4199 65.5545 31.4199C66.0928 31.4199 66.5968 31.3505 66.832 31.2464V34.5438C66.496 34.6826 65.6896 34.8214 64.7481 34.8214C61.2859 34.8214 59.8069 33.2247 59.8069 29.962V12.8853Z" fill="#199BFA"/>
<path fill-rule="evenodd" clip-rule="evenodd" d="M74.7248 16.2173C70.893 16.2173 68.1365 18.5426 68.1365 23.0203V28.2612C68.1365 32.6695 70.893 34.9948 74.6912 34.9948C78.4894 34.9948 81.3804 32.6695 81.3804 28.1918V22.9508C81.3804 18.5078 78.5903 16.2173 74.7248 16.2173ZM77.179 28.366C77.179 30.5871 76.3726 31.6981 74.7248 31.6981C73.0771 31.6981 72.3043 30.5871 72.3043 28.366V22.8128C72.3043 20.5569 73.1449 19.4807 74.7248 19.4807C76.3047 19.4807 77.179 20.5569 77.179 22.8474V28.366Z" fill="#199BFA"/>
<path fill-rule="evenodd" clip-rule="evenodd" d="M87.6335 18.7514C88.3398 17.3629 89.718 16.2173 91.7347 16.2173C94.7262 16.2173 96.7098 18.299 96.7098 22.638V28.5041C96.7098 32.8777 94.6254 34.9948 91.567 34.9948C89.6167 34.9948 88.2383 33.9886 87.6335 32.6002V40.3559H83.4651V16.5302H87.6335V18.7514ZM90.1542 31.7328C91.7009 31.7328 92.508 30.7259 92.508 28.5395V22.6392C92.508 20.3834 91.6331 19.5154 90.1542 19.5154C88.5408 19.5154 87.5993 20.661 87.5993 22.9169V28.2966C87.5993 30.5525 88.44 31.7328 90.1542 31.7328Z" fill="#199BFA"/>
<path fill-rule="evenodd" clip-rule="evenodd" d="M107.601 18.6126C106.963 17.1547 105.786 16.2173 103.837 16.2173C100.878 16.2173 98.6599 18.3344 98.6599 22.7426V28.5048C98.6599 32.9131 100.743 34.9955 103.635 34.9955C105.652 34.9955 106.929 33.8499 107.601 32.392V34.6825H111.77V16.5295H107.601V18.6126ZM107.635 28.2619C107.635 30.5178 106.693 31.6981 105.08 31.6981C103.668 31.6981 102.862 30.7953 102.862 28.5742V22.6733C102.862 20.4174 103.668 19.4453 105.182 19.4453C106.795 19.4453 107.636 20.6256 107.636 22.9508L107.635 28.2619Z" fill="#199BFA"/>
<path d="M120.137 27.567L122.792 16.5293H126.876L120.124 40.3557H115.941L118.02 33.2251L112.943 16.5293H117.38L120.137 27.567Z" fill="#199BFA"/>
</g>
<defs>
<clipPath id="clip0_248_2375">
<rect width="120.269" height="30.4906" fill="white" transform="translate(6.60815 9.86572)"/>
</clipPath>
</defs>
</svg>
