<svg width="141" height="49" viewBox="0 0 141 49" fill="none" xmlns="http://www.w3.org/2000/svg">
<path d="M6.92791 13.3628L13.0364 13.3579C17.3831 13.355 21.134 13.2973 24.6265 16.4143C26.6811 18.3322 27.7148 20.8444 27.8223 23.6228C27.9644 27.2926 27.0494 29.5024 24.6395 32.1774C23.2059 33.3361 22.4064 33.8602 20.6505 34.5104C18.1359 35.4417 15.8831 35.3407 13.2476 35.3382L6.91845 35.3348C6.9021 34.4266 6.90157 33.4954 6.91134 32.587C6.9802 26.1904 6.81051 19.7557 6.92791 13.3628ZM13.0364 29.913C15.496 29.9427 17.9877 30.1771 19.909 28.3726C21.0297 27.2789 21.4929 26.0743 21.5226 24.5287C21.5991 20.5458 18.8754 18.7778 15.1577 18.7445C14.4646 18.736 13.7715 18.7438 13.0787 18.768C12.9959 19.1853 13.0302 21.6185 13.0305 22.1926L13.0364 29.913Z" fill="#219CFE"/>
<path d="M105.123 13.3258C106.03 13.4121 107.49 13.3454 108.44 13.3643C109.039 13.3763 110.739 13.3917 111.254 13.3115L111.256 13.7458L111.258 21.7475C111.258 23.8583 111.373 27.1897 110.868 29.1555C110.49 30.6749 109.714 32.0659 108.618 33.1845C105.169 36.6445 96.7621 36.6745 93.2649 33.1611C91.0913 30.978 90.7167 28.0156 90.7205 25.0853L90.7124 13.3477C92.7442 13.3892 94.9451 13.3733 96.9788 13.3485C96.9422 16.1104 96.9596 18.9139 96.9639 21.6864C97.0413 23.5313 96.7875 25.5049 97.1601 27.316C97.635 29.6235 99.9417 30.6649 102.09 30.1176C105.603 29.2225 105.042 25.2204 105.041 22.4279L105.029 15.4231C105.027 15.0636 104.969 13.5693 105.123 13.3258Z" fill="#219CFE"/>
<path d="M50.7758 12.9629C53.7839 13.0046 57.5527 13.7326 59.775 15.9176C59.0722 16.9488 57.6419 19.0902 56.7404 20.1046C56.6324 20.2262 56.2386 19.8918 56.0719 19.7956C54.7181 19.0139 53.2389 18.3129 51.6739 18.1027C50.8973 18.0137 49.5417 17.9074 48.8897 18.4798C47.8616 19.3824 48.4601 20.4266 49.5222 20.8357C52.796 22.0967 56.8253 22.0612 59.2558 24.9408C60.2916 26.1681 60.5315 27.9196 60.3617 29.4682C59.7456 34.7258 54.2163 36.1615 49.775 35.6349C49.2601 35.6176 48.5497 35.482 48.0414 35.3919C45.2945 34.9052 43.2674 33.8811 41.1497 32.1136C41.3747 31.5837 44.0727 28.4279 44.551 27.9749C45.3095 28.4809 45.7389 28.9042 46.6375 29.3605C48.5209 30.3054 50.9333 31.0303 53.028 30.4737C54.0967 30.1898 54.2908 29.3208 53.9717 28.3744C52.3047 26.8157 45.9473 26.6303 43.7653 24.2077C42.6542 23.0995 42.2309 21.9551 42.1791 20.3816C42.0032 15.0328 46.1865 13.0613 50.7758 12.9629Z" fill="#219CFE"/>
<path d="M123.635 12.9629C126.931 13.0214 130.072 13.721 132.65 15.8936C132.401 16.284 131.947 16.8627 131.665 17.2607L129.588 20.2201C129.091 19.9668 128.615 19.6256 128.118 19.3638C126.338 18.4264 122.789 17.07 121.265 18.9338C121.231 19.3616 121.238 19.6385 121.256 20.069C123.041 22.1672 129.235 21.3794 132.147 25.0315C133.137 26.2729 133.326 28.021 133.149 29.5544C132.971 31.0934 132.233 32.7423 130.984 33.722C128.721 35.4993 125.486 35.9731 122.684 35.6438C119.114 35.369 116.701 34.274 113.916 32.1013C114.082 31.8424 114.256 31.6127 114.454 31.378C115.416 30.2366 116.364 29.0753 117.337 27.944C119.447 29.5878 121.677 30.5971 124.386 30.6827C125.411 30.7151 126.965 30.3769 126.969 29.0935C126.969 28.7818 126.771 28.3185 126.502 28.152C124.644 27.0008 122.252 26.8861 120.206 26.1747C117.317 25.1986 114.929 23.5535 114.969 20.1896C115.03 14.9354 119.008 13.054 123.635 12.9629Z" fill="#219CFE"/>
<path d="M31.8328 13.3364C33.4418 13.4289 36.4001 13.3954 38.0409 13.339C38.13 20.5912 38.0416 28.0607 38.0446 35.3249C36.2144 35.4069 33.6944 35.3289 31.8131 35.3264L31.8151 21.0462C31.8145 18.5704 31.7548 15.7838 31.8328 13.3364Z" fill="#219CFE"/>
<path d="M74.5243 12.8721H75.9717C76.1011 12.912 76.3389 12.9402 76.4738 12.9507C84.3455 13.5645 89.1192 21.394 86.2547 28.6817C85.9563 29.4412 85.5044 30.0068 85.1385 30.7133C85.2332 30.7635 85.3242 30.8213 85.4097 30.8861C85.7155 31.1191 87.2223 32.3223 87.262 32.6108C87.0366 33.1145 84.7961 35.556 84.312 36.0286C83.6929 35.5917 82.4121 34.3929 81.9026 33.8342C80.423 34.7725 79.4114 35.2055 77.6891 35.543C74.3776 36.2192 70.933 35.5485 68.1187 33.6795C67.4105 33.2027 66.6967 32.5792 66.1425 31.9358C60.192 25.0262 64.1075 14.1998 73.3023 13.0452C73.6861 12.997 74.1492 12.944 74.5243 12.8721ZM77.426 29.9813C77.1003 29.6783 75.5601 28.3396 75.2561 28.1332L74.3925 27.3617C74.7583 26.7947 76.9988 24.2904 77.5102 23.8477C78.5013 24.7399 79.4937 25.6854 80.4725 26.5934C81.541 23.4532 80.1982 19.8495 76.9258 18.6916C76.0498 18.3816 75.3471 18.3985 74.442 18.4503C73.0237 18.6945 71.6772 19.4305 70.8396 20.6195C69.8373 22.0434 69.4398 23.8055 69.7345 25.521C70.2948 28.736 73.124 30.8819 76.3704 30.2586C76.727 30.1901 77.078 30.0844 77.426 29.9813Z" fill="#219CFE"/>
</svg>
