<svg width="187" height="51" viewBox="0 0 187 51" fill="none" xmlns="http://www.w3.org/2000/svg">
<mask id="mask0_248_2368" style="mask-type:luminance" maskUnits="userSpaceOnUse" x="6" y="7" width="174" height="37">
<path d="M179.577 7.12402H6.77344V43.0981H179.577V7.12402Z" fill="white"/>
</mask>
<g mask="url(#mask0_248_2368)">
<path d="M36.2526 18.5701L32.1961 20.8558L25.5071 24.6185L25.5053 24.6195L24.9387 24.934L24.9345 24.9364L23.6061 25.6967V22.8522L25.8729 21.5743L34.9664 16.4522L35.5432 16.1273L34.9678 15.8001L25.937 10.6625C25.1186 10.1971 24.19 9.9523 23.2451 9.9523C22.3003 9.9523 21.3719 10.1971 20.5536 10.6624C20.5535 10.6624 20.5537 10.6623 20.5536 10.6624L11.4799 15.8036L10.9017 16.1312L11.4813 16.4564L19.1292 20.7476V23.594L10.2293 18.5967L9.67112 18.2833V18.9235V23.5414V23.761L9.86264 23.8684L15.288 26.9089V29.7865L10.2291 26.9513L9.67112 26.6386V27.2782V34.9744L7.14771 33.5442V15.4128L19.2536 8.55116C20.4664 7.8628 21.8433 7.5 23.2451 7.5C24.647 7.5 26.0237 7.86269 27.2365 8.55105L39.3386 15.409V33.5463L23.2433 42.6601L14.2108 37.5388V34.6981L15.4778 35.4162L23.0583 39.7148L23.2432 39.8196L23.4281 39.7147L36.6215 32.2298L36.8113 32.1221V31.9038V18.8965V18.2553L36.2526 18.5701Z" fill="#0F92D4"/>
<path d="M20.5536 10.6624C21.3719 10.1971 22.3003 9.9523 23.2451 9.9523C24.19 9.9523 25.1186 10.1971 25.937 10.6625L34.9678 15.8001L35.5432 16.1273L34.9664 16.4522L25.8729 21.5743L23.6061 22.8522V25.6967L24.9345 24.9364L24.9387 24.934L25.5053 24.6195L25.5071 24.6185L32.1961 20.8558L36.2526 18.5701L36.8113 18.2553V18.8965V31.9038V32.1221L36.6215 32.2298L23.4281 39.7147L23.2432 39.8196L23.0583 39.7148L15.4778 35.4162L14.2108 34.6981V37.5388L23.2433 42.6601L39.3386 33.5463V15.409L27.2365 8.55105C26.0237 7.86269 24.647 7.5 23.2451 7.5C21.8433 7.5 20.4664 7.8628 19.2536 8.55116L7.14771 15.4128V33.5442L9.67112 34.9744V27.2782V26.6386L10.2291 26.9513L15.288 29.7865V26.9089L9.86264 23.8684L9.67112 23.761V23.5414V18.9235V18.2833L10.2293 18.5967L19.1292 23.594V20.7476L11.4813 16.4564L10.9017 16.1312L11.4799 15.8036L20.5536 10.6624ZM20.5536 10.6624C20.5535 10.6624 20.5537 10.6623 20.5536 10.6624Z" stroke="#0F92D4" stroke-width="0.330408"/>
<path d="M48.8784 15.8727H60.8567V18.6474H52.2101V23.2422H58.3247V26.0207H52.2101V33.8558H48.8784V15.8727ZM70.2442 20.2828H73.4426V33.4441C72.8259 33.598 72.0237 33.7584 71.0359 33.9252C69.9604 34.0957 68.8722 34.178 67.7827 34.1714C66.8311 34.1992 65.8836 34.0395 64.9958 33.702C64.2946 33.4251 63.6757 32.9791 63.1968 32.405C62.7335 31.819 62.4046 31.1417 62.2325 30.4194C62.0321 29.5899 61.9347 28.7396 61.9425 27.8872V20.2828H65.1409V27.3945C65.1409 28.8492 65.3565 29.8883 65.7876 30.5117C66.2187 31.1352 66.9635 31.4469 68.0492 31.4469C68.4412 31.4469 68.8331 31.4469 69.28 31.393C69.6044 31.3742 69.9268 31.3305 70.2442 31.2621V20.2828ZM84.3198 20.2828C84.5821 20.3444 84.7935 20.3983 84.9546 20.4483L84.3978 23.096C84.0373 22.9868 83.6708 22.8969 83.3005 22.8266C82.7647 22.7239 82.2198 22.6749 81.6738 22.6804C81.2976 22.6834 80.9224 22.7195 80.5528 22.7881C80.2709 22.831 79.992 22.8915 79.7179 22.969V33.8558H76.5195V20.9332C77.2747 20.6702 78.0474 20.458 78.832 20.2983C79.8452 20.0908 80.878 19.9903 81.9126 19.9981C82.1246 19.9981 82.3712 19.9981 82.6538 20.0366C82.9356 20.0751 83.2181 20.0982 83.5007 20.1405C83.7824 20.1828 84.0568 20.2367 84.3198 20.2983V20.2828ZM92.6605 20.0019C93.6521 19.9972 94.6421 20.0758 95.6194 20.2367C96.5555 20.3906 97.3484 20.5548 97.9989 20.7293V32.482C97.9989 34.6448 97.4398 36.2277 96.3217 37.2309C95.2027 38.234 93.4887 38.7368 91.1789 38.7394C90.3515 38.7394 89.5248 38.6699 88.7094 38.5316C87.9682 38.4072 87.2382 38.2244 86.5262 37.9851L87.1063 35.2913C87.7074 35.5331 88.3309 35.7161 88.968 35.8378C89.7129 35.98 90.4706 36.0497 91.2298 36.0455C92.5151 36.0455 93.4325 35.7839 93.9736 35.2759C94.5147 34.7679 94.7928 33.9867 94.7928 32.9669V32.4589C94.388 32.647 93.9683 32.8027 93.5382 32.9246C92.9588 33.0871 92.3578 33.1662 91.7552 33.1594C90.93 33.1684 90.1094 33.0275 89.3367 32.7437C88.6262 32.4796 87.9847 32.0628 87.4593 31.5238C86.9144 30.9443 86.5 30.2585 86.2437 29.5112C85.9371 28.6125 85.7903 27.6687 85.809 26.7211C85.797 25.7932 85.9536 24.8706 86.2714 23.9965C86.5569 23.1988 87.0171 22.4722 87.6197 21.8684C88.2305 21.2641 88.9657 20.7944 89.7759 20.4907C90.6977 20.1514 91.6758 19.9856 92.6605 20.0019ZM94.8002 22.8305C94.5732 22.7804 94.2914 22.7304 93.9541 22.6881C93.5337 22.6412 93.111 22.6194 92.6875 22.6227C92.1831 22.5933 91.6787 22.6803 91.2148 22.8767C90.7502 23.0732 90.3395 23.3737 90.0149 23.754C89.3659 24.6098 89.0392 25.6595 89.0894 26.725C89.0894 28.0565 89.3877 29.034 89.9752 29.6458C90.2683 29.9501 90.6243 30.1896 91.0192 30.3482C91.4134 30.5068 91.8384 30.5809 92.2648 30.5656C92.752 30.5699 93.2376 30.4998 93.703 30.3577C94.092 30.2486 94.4622 30.0825 94.8002 29.8652V22.8305ZM113.098 24.1389C113.436 25.0762 113.602 26.0653 113.587 27.0598C113.605 28.0607 113.451 29.0575 113.129 30.0076C112.838 30.8418 112.38 31.6101 111.78 32.2665C111.192 32.8905 110.476 33.385 109.679 33.7173C107.945 34.41 106.005 34.41 104.27 33.7173C103.478 33.3843 102.768 32.8897 102.185 32.2665C101.582 31.6104 101.12 30.8423 100.825 30.0076C100.488 29.0658 100.322 28.0732 100.335 27.0751C100.321 26.0807 100.487 25.0917 100.825 24.1543C101.123 23.3231 101.59 22.5598 102.197 21.9107C102.786 21.2893 103.504 20.7985 104.302 20.4715C105.147 20.1276 106.056 19.9561 106.971 19.9673C107.89 19.9569 108.802 20.1284 109.652 20.4715C110.451 20.7957 111.17 21.2868 111.757 21.9107C112.347 22.5611 112.802 23.3179 113.098 24.1389ZM109.424 30.2962C110.017 29.4996 110.31 28.4182 110.314 27.052C110.319 25.6859 110.017 24.6315 109.428 23.8464C109.135 23.477 108.76 23.1782 108.332 22.9727C107.903 22.7671 107.432 22.6603 106.955 22.6603C106.478 22.6603 106.008 22.7671 105.579 22.9727C105.15 23.1782 104.776 23.477 104.482 23.8464C103.894 24.6161 103.596 25.7013 103.596 27.052C103.596 28.4029 103.894 29.4996 104.482 30.2962C104.647 30.5046 104.838 30.692 105.051 30.8542C105.708 31.3467 106.537 31.5645 107.357 31.4599C108.177 31.3554 108.921 30.9372 109.428 30.2962H109.424ZM126.24 21.7183C126.712 22.2962 127.043 22.973 127.208 23.6963C127.398 24.5273 127.492 25.3768 127.486 26.2285V33.8558H124.288V26.725C124.295 26.1022 124.245 25.4801 124.139 24.8662C124.073 24.4245 123.917 24.0004 123.68 23.6194C123.46 23.3023 123.147 23.0581 122.783 22.919C122.338 22.7622 121.868 22.6878 121.395 22.6996C120.971 22.7001 120.546 22.7258 120.125 22.7766C119.682 22.8266 119.341 22.8728 119.145 22.9036V33.8558H115.947V20.7293C117.795 20.2367 119.703 19.9921 121.619 20.0019C122.588 19.971 123.555 20.1252 124.464 20.456C125.168 20.7204 125.792 21.1576 126.275 21.726L126.24 21.7183ZM136.125 19.9404C138.03 19.9404 139.515 20.5202 140.582 21.6798C141.647 22.8395 142.18 24.5699 142.177 26.8712C142.177 27.0444 142.177 27.256 142.177 27.4561C142.177 27.6562 142.157 27.8679 142.138 28.0372H133.02C133.036 28.5148 133.148 28.9846 133.349 29.4194C133.551 29.854 133.84 30.245 134.196 30.5694C134.894 31.1672 135.904 31.466 137.226 31.466C137.941 31.4699 138.655 31.4003 139.355 31.2583C139.873 31.1554 140.38 31.0073 140.872 30.8157L141.295 33.3864C141.06 33.4944 140.818 33.5857 140.57 33.6596C140.221 33.7635 139.868 33.8482 139.511 33.9175C139.155 33.9867 138.689 34.0599 138.23 34.1137C137.764 34.1644 137.295 34.1901 136.827 34.1907C135.745 34.2113 134.669 34.0311 133.656 33.6596C132.81 33.3402 132.051 32.8331 131.437 32.178C130.847 31.5343 130.406 30.7729 130.144 29.946C129.851 29.0351 129.708 28.0842 129.721 27.129C129.697 26.0582 129.881 24.9927 130.261 23.9888C130.582 23.1524 131.071 22.3881 131.7 21.7414C132.284 21.1551 132.988 20.6962 133.765 20.3945C134.522 20.0941 135.329 19.94 136.145 19.9404H136.125ZM138.979 25.7128C138.982 25.2943 138.92 24.8776 138.794 24.4776C138.682 24.1093 138.498 23.7657 138.253 23.4654C138.018 23.1925 137.727 22.971 137.399 22.815C137.015 22.6412 136.595 22.5569 136.172 22.5688C135.725 22.5587 135.282 22.6523 134.878 22.842C134.519 23.014 134.199 23.2562 133.938 23.5539C133.68 23.8533 133.479 24.1963 133.346 24.5661C133.206 24.9394 133.107 25.3265 133.052 25.7205L138.979 25.7128ZM151.635 31.2659C151.998 31.1746 152.356 31.0615 152.705 30.9273L153.234 33.421C152.76 33.61 152.274 33.7707 151.78 33.9021C151.088 34.0762 150.377 34.159 149.664 34.1484C148.823 34.1747 147.985 34.0442 147.194 33.7635C146.576 33.5365 146.033 33.1463 145.626 32.636C145.22 32.1071 144.941 31.4956 144.807 30.8465C144.638 30.0571 144.558 29.2518 144.568 28.4451V16.704L147.766 16.1844V20.2828H152.685V22.9036H147.778V28.4336C147.778 29.5265 147.959 30.3039 148.307 30.7695C148.656 31.2352 149.26 31.4699 150.107 31.4699C150.627 31.4774 151.146 31.4167 151.65 31.289L151.635 31.2659ZM164.934 29.8382C165.475 30.5309 165.988 31.2237 166.467 31.9163C166.892 32.5372 167.285 33.1795 167.642 33.8405H163.942C163.626 33.3017 163.26 32.7386 162.845 32.1511C162.434 31.5661 161.986 30.9966 161.508 30.4386C161.03 29.8806 160.548 29.361 160.058 28.8685C159.607 28.4128 159.121 27.9921 158.604 27.6101V33.8558H155.429V14.2295L158.632 13.71V25.5781L159.925 24.2428C160.385 23.7656 160.834 23.2897 161.274 22.815C161.712 22.3379 162.128 21.8799 162.527 21.4374C162.928 20.9948 163.264 20.6138 163.547 20.2828H167.325C166.447 21.2526 165.519 22.2571 164.542 23.2961C163.565 24.3352 162.585 25.3472 161.603 26.3324C162.191 26.8208 162.747 27.3452 163.269 27.9025C163.849 28.5157 164.411 29.1687 164.958 29.8613L164.934 29.8382ZM179.28 23.1037C179.472 23.8194 179.566 24.5572 179.558 25.2972V33.548C179.064 33.6519 178.32 33.7751 177.324 33.9328C176.207 34.0868 175.081 34.1601 173.953 34.1522C173.188 34.1587 172.426 34.08 171.68 33.9175C171.047 33.7808 170.45 33.5189 169.924 33.1478C169.436 32.7991 169.045 32.336 168.787 31.8009C168.495 31.1561 168.354 30.4551 168.375 29.7497C168.354 29.0643 168.515 28.3852 168.842 27.7794C169.144 27.2479 169.575 26.7974 170.096 26.4672C170.658 26.1163 171.282 25.8698 171.935 25.7398C172.651 25.59 173.382 25.5165 174.114 25.5204C174.906 25.5242 175.696 25.6197 176.466 25.8052V25.2972C176.47 24.9468 176.427 24.5973 176.336 24.2582C176.251 23.9365 176.093 23.6379 175.874 23.3846C175.643 23.1272 175.353 22.9279 175.027 22.8035C174.59 22.6502 174.127 22.5796 173.663 22.5957C172.982 22.5894 172.301 22.6409 171.629 22.7496C171.118 22.8297 170.615 22.9507 170.124 23.1114L169.732 20.5715C170.31 20.3911 170.901 20.2523 171.499 20.1559C172.32 20.0135 173.152 19.9439 173.984 19.9481C174.89 19.9239 175.794 20.0542 176.654 20.3329C177.302 20.5373 177.887 20.9008 178.351 21.3891C178.817 21.8774 179.147 22.4742 179.311 23.1229L179.28 23.1037ZM176.466 27.9949C176.215 27.9269 175.959 27.8741 175.701 27.8371C174.977 27.7345 174.242 27.7345 173.518 27.8371C173.179 27.8837 172.848 27.9811 172.538 28.1257C172.258 28.2567 172.018 28.457 171.84 28.7068C171.655 28.9896 171.562 29.3212 171.574 29.6574C171.574 30.4001 171.813 30.9158 172.288 31.1967C172.884 31.5229 173.561 31.6801 174.243 31.6508C174.995 31.6689 175.747 31.6174 176.489 31.4969L176.466 27.9949Z" fill="#494B52"/>
</g>
</svg>
