<svg width="60" height="51" viewBox="0 0 60 51" fill="none" xmlns="http://www.w3.org/2000/svg">
<path d="M33.1883 34.0627C33.2151 34.0609 33.2418 34.06 33.2687 34.0596C34.3937 34.0425 35.5267 34.0692 36.6526 34.0592C36.9943 34.056 37.3926 34.1106 37.7226 34.1987C38.2776 34.3472 38.7848 34.6366 39.1949 35.0388C39.774 35.6073 40.0964 36.387 40.0881 37.1984C40.0806 39.0928 38.533 40.771 36.6584 40.9709C36.1539 41.0247 35.6037 41.0038 35.0943 41.0025C34.953 40.9996 34.8114 40.9978 34.6698 40.9973C34.5747 40.9976 34.3723 41.0091 34.3309 41.0953C34.0951 41.5841 33.9609 43.9925 33.6957 44.2601C33.4833 44.3547 32.9443 44.293 32.6934 44.3015C32.3857 44.312 32.0656 44.3108 31.7543 44.3066C31.4958 44.3033 31.4653 44.1243 31.4849 43.9044C31.5424 43.5478 31.6041 43.1868 31.659 42.8286L32.0914 40.0838L32.6698 36.4131C32.7711 35.768 32.8691 35.1189 32.9775 34.475C33.0145 34.2564 33.0162 34.1811 33.1883 34.0627ZM37.0326 38.5762C37.3733 38.3518 37.6126 38.0629 37.6816 37.6576C37.9762 35.93 36.0464 36.2546 35.05 36.2417L34.7813 37.9412C34.7399 38.2045 34.6945 38.5706 34.6353 38.8208C35.3395 38.8222 36.4491 38.9235 37.0326 38.5762Z" fill="#0071E0"/>
<path d="M43.582 36.8955C43.6111 36.893 43.6403 36.891 43.6697 36.8897C44.4725 36.8529 45.2765 37.1606 45.87 37.6992C45.8945 37.5552 45.9422 37.1374 46.1227 37.1416C46.5148 37.1508 47.837 37.0442 48.1233 37.2095C48.1345 37.2345 48.1441 37.2563 48.1492 37.2832C48.2097 37.6149 47.9432 38.9317 47.878 39.3458L47.365 42.5718C47.2893 43.0359 47.2328 43.7642 47.0687 44.1925C46.9877 44.4044 45.341 44.2717 45.0765 44.2964C44.8425 44.318 44.912 43.9763 44.9011 43.8388L44.8706 43.831L44.78 43.8917C42.6765 45.2449 39.9336 44.1161 39.6925 41.5345C39.5912 40.3832 39.9436 39.238 40.6748 38.343C41.4293 37.4357 42.4214 37.0016 43.582 36.8955ZM43.5506 42.4709C44.1513 42.3964 44.6101 42.2172 44.9955 41.721C45.3145 41.3144 45.4546 40.7957 45.3836 40.284C45.2749 39.5096 44.5006 38.9251 43.7305 39.0096C43.5415 39.0246 43.4105 39.0386 43.2293 39.0907C42.3813 39.3342 41.7811 40.1912 41.8585 41.0744C41.8939 41.4744 42.0865 41.8437 42.3944 42.1014C42.7175 42.3668 43.136 42.4865 43.5506 42.4709Z" fill="#0071E0"/>
<path d="M18.7263 36.8961C19.5841 36.8411 20.3619 37.1409 21.0046 37.6976C21.042 37.5527 21.0636 37.1285 21.2773 37.1392C21.6753 37.159 22.9521 37.039 23.2503 37.2053C23.3635 37.3956 23.1968 38.1809 23.1585 38.4219L22.8799 40.1795L22.4955 42.6107C22.4255 43.0657 22.36 43.522 22.2817 43.9754C22.243 44.1993 22.1547 44.3002 21.9185 44.303C21.3438 44.3097 20.7632 44.3166 20.1895 44.295C19.9591 44.2866 20.0662 43.9055 20.0173 43.8289L19.934 43.8783C17.8097 45.2237 15.0798 44.1486 14.8307 41.556C14.7216 40.3917 15.079 39.2315 15.8247 38.3302C16.5732 37.4296 17.5782 37.0014 18.7263 36.8961ZM18.703 42.4698C19.2909 42.3972 19.748 42.2129 20.1262 41.7317C20.4394 41.3346 20.5826 40.8297 20.5247 40.3276C20.4751 39.934 20.271 39.5763 19.9573 39.3335C19.6626 39.1055 19.211 38.9715 18.8427 39.0107C16.3845 39.2257 16.4143 42.5922 18.703 42.4698Z" fill="#003188"/>
<path d="M23.134 3.87598H31.5527C31.9786 3.9559 32.3464 3.98226 32.779 4.09179C35.0911 4.67711 36.9546 6.60128 37.1912 9.01873C37.2142 9.25637 37.224 9.49653 37.2309 9.73648L37.2386 9.74263C37.7242 9.96377 38.1955 10.3325 38.5816 10.6978C40.5364 12.547 40.7468 15.2387 39.6578 17.5872C38.8539 19.3205 37.3963 20.665 35.6036 21.3266C34.2121 21.8353 33.249 21.7752 31.7954 21.769C31.5384 21.7679 30.8498 21.7497 30.6405 21.8002C30.4446 21.8479 30.2808 21.9819 30.195 22.1646C30.067 22.4365 29.8718 23.8862 29.811 24.275L29.27 27.7118C29.2143 28.0681 29.1607 28.7332 29.0233 29.0364C28.9574 29.182 28.8215 29.3173 28.6721 29.3759C28.5638 29.4184 28.442 29.4348 28.3262 29.442C27.6629 29.4825 26.9735 29.4422 26.308 29.4411C25.7333 29.44 25.1379 29.4809 24.5658 29.4435C24.4542 29.4364 24.3404 29.4177 24.2376 29.3723C24.0866 29.3055 23.979 29.1586 23.9293 29.0037C23.8441 28.7388 24.5439 24.9575 24.6088 24.3277C23.597 24.305 22.5716 24.3408 21.5584 24.3248C21.1437 24.3182 20.7271 24.3311 20.3096 24.3294C19.9993 24.3281 19.7395 24.2976 19.5925 23.9751C19.5265 23.825 19.5423 23.6431 19.568 23.4819C19.8161 21.929 20.0611 20.3728 20.3059 18.8196L21.815 9.24589L22.3152 6.08051C22.3989 5.54303 22.4844 4.79047 22.6376 4.27117C22.694 4.08001 22.9481 3.94636 23.134 3.87598Z" fill="#003188"/>
<path d="M37.2403 9.74316C37.7258 9.96431 38.1972 10.3331 38.5832 10.6983C40.538 12.5475 40.7484 15.2392 39.6594 17.5877C38.8555 19.321 37.3979 20.6656 35.6052 21.3272C34.2137 21.8359 33.2506 21.7758 31.797 21.7696C31.54 21.7685 30.8514 21.7502 30.6421 21.8008C30.4462 21.8485 30.2824 21.9825 30.1967 22.1651C30.0686 22.437 29.8734 23.8867 29.8126 24.2755L29.2716 27.7123C29.2159 28.0687 29.1623 28.7338 29.0249 29.0369C28.959 29.1825 28.8231 29.3179 28.6737 29.3764C28.5654 29.4189 28.4436 29.4354 28.3278 29.4425C27.6645 29.483 26.9751 29.4427 26.3096 29.4416C25.7349 29.4405 25.1395 29.4815 24.5674 29.4441C24.4558 29.4369 24.342 29.4182 24.2392 29.3728C24.0882 29.3061 23.9806 29.1591 23.9309 29.0042C23.8457 28.7393 24.5455 24.958 24.6104 24.3282C24.6598 24.1389 24.6979 23.8435 24.7294 23.6446L24.9177 22.4514L25.499 18.7732C25.5588 18.388 25.694 17.3293 25.8067 17.0493C26.1006 16.5076 26.8868 16.6522 27.4247 16.6528L29.2925 16.6526C29.9442 16.6525 30.4001 16.6727 31.0476 16.5791C32.0546 16.4332 33.0193 16.0751 33.8775 15.5286C35.4487 14.53 36.5748 12.9648 37.0223 11.158C37.0846 10.9056 37.139 10.6421 37.1739 10.3845C37.2013 10.181 37.1902 9.94123 37.2403 9.74316Z" fill="#0071E0"/>
<path d="M25.8083 17.0487C25.7892 17.009 25.7819 16.9714 25.7891 16.9276C25.88 16.369 25.9664 15.8096 26.0548 15.2505L26.593 11.8486C26.6528 11.4703 26.8948 9.63695 27.0095 9.40387C27.1065 9.20672 27.2517 9.08496 27.4608 9.01912C27.7589 8.92528 29.8147 8.97988 30.2805 8.97981C31.6021 8.97959 32.9657 8.94126 34.282 8.98426C34.5812 8.99508 34.8795 9.02264 35.1756 9.0668C35.8943 9.17373 36.59 9.40004 37.2341 9.7364L37.2419 9.74254C37.1918 9.94061 37.203 10.1804 37.1756 10.3839C37.1406 10.6415 37.0863 10.905 37.024 11.1574C36.5765 12.9642 35.4504 14.5294 33.8792 15.528C33.0209 16.0745 32.0562 16.4325 31.0492 16.5784C30.4018 16.6721 29.9459 16.6519 29.2942 16.652L27.4263 16.6522C26.8884 16.6515 26.1023 16.507 25.8083 17.0487Z" fill="#001D65"/>
<path d="M6.60815 43.9767C6.76191 43.1473 6.88706 42.2453 7.01907 41.4066L7.74699 36.7889C7.86901 36.0137 7.98946 35.2339 8.11624 34.4591C8.12799 34.3872 8.17845 34.1757 8.22318 34.1276C8.25529 34.0931 8.43467 34.0606 8.49172 34.0604C9.02324 34.0591 9.59391 34.0448 10.1227 34.0571C10.7265 34.0713 11.4235 34.0295 12.0113 34.0635C12.2801 34.0798 12.5469 34.1207 12.8082 34.1857C13.6487 34.3919 14.3719 34.925 14.8172 35.6669C15.2478 36.3978 15.324 37.2571 15.1061 38.0697C14.8359 39.0986 14.1606 39.9738 13.2341 40.4962C12.0072 41.19 10.9315 40.9476 9.61103 41.0128C9.35629 41.0255 9.31964 41.6897 9.28994 41.8845L9.06644 43.3394C9.03326 43.5513 8.98328 44.1329 8.82396 44.2649C8.64592 44.3237 6.85336 44.3375 6.72575 44.2689C6.67504 44.2415 6.64127 44.1877 6.60815 44.1423V43.9767ZM9.77353 38.8196C10.482 38.8196 11.5902 38.9205 12.1643 38.5772C13.0831 38.0288 13.1418 36.5223 11.9803 36.2912C11.4909 36.194 10.6892 36.2387 10.174 36.2409C10.158 36.4715 10.1105 36.7418 10.0702 36.9706C9.96273 37.5816 9.89109 38.2122 9.77353 38.8196Z" fill="#003188"/>
<path d="M27.3234 40.8031L28.7052 38.461C28.9029 38.1267 29.2231 37.5675 29.4513 37.2372C29.5962 37.0273 31.2814 37.172 31.6078 37.1283C31.7057 37.1152 31.858 37.1777 31.9123 37.2648C31.925 37.3529 31.9108 37.4075 31.8631 37.486C31.5125 38.0648 31.1589 38.6489 30.8092 39.2276L28.6253 42.8409L27.2589 45.1042C27.0385 45.4693 26.8136 45.8568 26.5767 46.2119C26.5363 46.2722 26.4621 46.3183 26.3952 46.347H24.2087C24.145 46.288 24.0833 46.2381 24.0836 46.1435C24.084 46.0071 25.6258 43.5855 25.8258 43.2685L24.5992 39.4629C24.4844 39.1076 23.8816 37.3894 23.9562 37.2185C24.0331 37.1635 24.1079 37.143 24.2018 37.1319C24.5582 37.09 24.9518 37.1317 25.3122 37.1328C25.5462 37.1337 25.803 37.0981 26.0334 37.1363C26.0843 37.1448 26.1541 37.1604 26.19 37.2011C26.3374 37.3683 27.1782 40.333 27.3234 40.8031Z" fill="#003188"/>
<path d="M52.205 34.4041C52.1758 34.5156 52.1344 34.8308 52.1131 34.9625L51.9134 36.2204L51.0825 41.4963L50.8233 43.1272C50.7792 43.411 50.7407 43.6966 50.6911 43.9793C50.6563 44.1776 50.6002 44.2885 50.3841 44.2954C49.7705 44.3149 49.1424 44.3147 48.5293 44.2947C48.1886 44.2838 48.4297 43.4183 48.46 43.22L48.7911 41.1061L49.4966 36.6329C49.6133 35.893 49.7288 35.1508 49.8491 34.4116C49.8713 34.3146 49.8698 34.2309 49.9408 34.1561C50.061 34.0294 50.222 34.0561 50.3925 34.0559C50.8946 34.0552 51.4037 34.0557 51.9065 34.0577C52.0648 34.0584 52.1006 34.0995 52.205 34.2111V34.4041Z" fill="#0071E0"/>
</svg>
