<svg width="122" height="51" viewBox="0 0 122 51" fill="none" xmlns="http://www.w3.org/2000/svg">
<path fill-rule="evenodd" clip-rule="evenodd" d="M29.3083 27.9016L38.2543 27.8901L37.9283 29.9264L30.4465 37.0705L36.7271 37.0591L36.361 39.2555L27.1118 39.2612L27.5008 36.9904L34.6736 30.1209H28.9479L29.3083 27.9016Z" fill="#D13239"/>
<path fill-rule="evenodd" clip-rule="evenodd" d="M19.5238 24.4182C19.3293 24.2123 19.0491 24.0522 18.7402 23.9263C18.4141 23.8005 18.0538 23.709 17.6991 23.6461C17.253 23.566 16.8183 23.5317 16.5094 23.5202C16.2234 23.5088 16.0404 23.5088 16.0404 23.5088H12.1279H9.21645L6.60815 39.2613H9.04486L10.0058 33.427L14.7305 33.4499C14.7305 33.4499 16.5723 33.5243 17.8765 32.8322C19.1806 32.1401 19.5295 30.5671 19.5295 30.5671C19.5295 30.5671 19.6725 29.9837 19.7927 29.2744C19.9242 28.4908 20.0558 27.5527 20.1244 27.0551C20.153 26.8377 20.1702 26.7005 20.1702 26.7005C20.1702 26.7005 20.2045 26.5403 20.2045 26.2886C20.2102 25.9397 20.1587 25.4135 19.8842 24.9102C19.7869 24.7328 19.6725 24.5727 19.5238 24.4182ZM17.6477 27.1981C17.6477 27.2267 17.4303 28.4908 17.1443 29.9894C17.0356 30.5614 16.5952 30.8702 16.0918 30.9789C15.2567 31.1562 14.3587 31.1219 14.3587 31.1219L10.4119 31.1105L11.2814 25.8768L14.8563 25.8883C14.8563 25.8883 15.0966 25.8825 15.434 25.8883C15.8173 25.894 16.3264 25.9111 16.7439 25.9683C17.1043 26.0141 17.3903 26.0884 17.4818 26.2028C17.6019 26.3516 17.6477 26.546 17.6648 26.7176C17.6877 26.9693 17.6477 27.1809 17.6477 27.1981Z" fill="#D13239"/>
<path fill-rule="evenodd" clip-rule="evenodd" d="M50.3895 23.5088H52.7347L50.1092 39.2613L47.7583 39.2556L50.3895 23.5088Z" fill="#D13239"/>
<path fill-rule="evenodd" clip-rule="evenodd" d="M62.903 27.9014L65.1509 27.8957L65.946 35.8921L69.4065 27.8843L72.1807 27.89L72.9987 35.9207L76.4535 27.8957H78.7873L73.8338 39.2496H71.0653L70.2645 31.299L66.7696 39.2496L64.0469 39.2611L62.903 27.9014Z" fill="#D13239"/>
<path d="M46.06 27.9932C45.4022 27.7815 44.2639 27.7358 43.2972 27.7472C42.3649 27.7587 41.9359 27.8044 41.587 27.8788C41.587 27.8788 39.9282 28.119 38.9844 29.2859C38.0406 30.4527 37.7603 33.0038 37.7603 33.0038C37.7603 33.0038 37.1998 35.8237 37.3657 36.7674C37.5315 37.7055 37.8232 38.5806 38.8872 38.9867C39.9511 39.3986 40.8548 39.3757 40.8548 39.3757C40.8548 39.3757 42.7538 39.5244 44.1838 39.1869C45.6138 38.8495 46.3689 37.8428 46.3689 37.8428C46.3689 37.8428 46.7063 37.4081 46.9466 36.8933C47.1868 36.3785 47.2612 36.0181 47.2726 35.9724L47.4213 35.3604L44.9904 35.3661C44.9904 35.3661 44.8588 36.9734 43.5432 37.1221C42.2333 37.2708 41.5298 37.2136 41.2724 37.2022C41.0207 37.1907 39.6136 37.2536 39.728 36.0753C39.728 36.0582 39.728 36.0353 39.7337 36.001C39.7966 34.6625 39.9454 34.3136 39.9454 34.3136L47.5815 34.2907L47.9075 32.4032C48.285 30.264 48.0162 28.6338 46.06 27.9932ZM45.5509 32.1344L40.3171 32.1286L40.5231 31.2993C40.5231 31.2993 40.7061 30.6472 41.0665 30.3726C41.4325 30.0981 41.8959 30.0466 42.3306 30.0066C42.7653 29.9665 43.9264 29.8807 44.8702 30.0752C45.1848 30.1381 45.4823 30.3154 45.5623 30.5786C45.7454 31.1963 45.5509 32.1344 45.5509 32.1344Z" fill="#D13239"/>
<path d="M39.7436 36.0236C39.7436 36.0407 39.7379 36.0579 39.7379 36.075C39.7322 36.1664 39.7436 36.0179 39.7436 36.0236Z" fill="#D13239"/>
<path d="M54.146 36.0295C54.146 36.0466 54.1403 36.0637 54.1403 36.0809C54.1403 36.1722 54.146 36.0237 54.146 36.0295Z" fill="#D13239"/>
<path d="M60.4659 27.999C59.8081 27.7874 58.6698 27.7416 57.7031 27.7531C56.7708 27.7645 56.3418 27.8103 55.9929 27.8846C55.9929 27.8846 54.3341 28.1249 53.3903 29.2917C52.4465 30.4586 52.1662 33.0096 52.1662 33.0096C52.1662 33.0096 51.6057 35.8295 51.7715 36.7733C51.9374 37.7114 52.2291 38.5865 53.293 38.9926C54.357 39.4044 55.2607 39.3816 55.2607 39.3816C55.2607 39.3816 57.1597 39.5303 58.5897 39.1928C60.0197 38.8553 60.7747 37.8486 60.7747 37.8486C60.7747 37.8486 61.1122 37.4139 61.3525 36.8991C61.5927 36.3844 61.6671 36.024 61.6785 35.9782L61.8272 35.3662L59.3962 35.3719C59.3962 35.3719 59.2647 36.9792 57.9491 37.1279C56.6392 37.2767 55.9357 37.2195 55.6783 37.2137C55.4266 37.2023 54.0195 37.2595 54.1339 36.0869C54.1339 36.0698 54.1339 36.0469 54.1396 36.0126C54.2025 34.6741 54.3512 34.3252 54.3512 34.3252L61.9874 34.3023L62.3134 32.4148C62.6909 30.2698 62.4221 28.6339 60.4659 27.999ZM59.9339 32.1345L54.7002 32.1288L54.9061 31.2994C54.9061 31.2994 55.0891 30.6473 55.4495 30.3728C55.8098 30.0982 56.2789 30.0467 56.7136 30.0067C57.1483 29.9667 58.3094 29.8809 59.2532 30.0753C59.5678 30.1383 59.8653 30.3156 59.9454 30.5787C60.1284 31.1907 59.9339 32.1345 59.9339 32.1345Z" fill="#D13239"/>
<path fill-rule="evenodd" clip-rule="evenodd" d="M81.4858 27.9022L82.9902 36.2074L87.2401 27.8965L89.631 27.9194L83.505 39.7881C83.505 39.7881 82.3953 41.9387 81.7089 42.4821C81.0225 43.0255 80.5992 43.2715 80.0387 43.3287C79.4781 43.3859 79.2493 43.4259 78.7116 43.3287L78.1396 43.2257L78.4943 41.1036C78.4943 41.1036 79.4438 41.281 80.0044 41.0579C80.5706 40.8348 81.0225 39.8739 81.0225 39.8739L81.3085 39.3934L79.0949 27.8965L81.4858 27.9022Z" fill="#D13239"/>
<path fill-rule="evenodd" clip-rule="evenodd" d="M90.5026 29.0287L92.9679 29.0344L93.1167 28.0792C93.1167 28.0792 93.3798 26.3518 93.9689 26.0201C94.1577 25.9114 94.4609 25.8142 94.8098 25.7512C95.4561 25.6368 96.2741 25.6254 96.9433 25.6483C97.9672 25.6826 98.3561 25.694 99.3972 25.8142C100.438 25.9343 100.175 26.941 100.175 26.941L99.9692 28.4453C99.9692 28.4453 99.8777 29.1202 99.6374 29.5378C99.4258 29.9096 98.8423 30.1613 98.5049 30.2699C97.6926 30.533 94.9127 31.2423 94.9127 31.2423L92.7277 31.8715C92.7277 31.8715 91.3835 32.2604 90.6342 33.0898C89.8792 33.9249 89.5817 34.8687 89.4788 35.3606C89.3758 35.8525 88.7981 39.2558 88.7981 39.2558L100.593 39.2616L100.987 36.905L91.6581 36.9164L91.824 35.9555C91.824 35.9555 91.9326 34.9659 92.333 34.6399C92.4589 34.537 92.5218 34.3997 93.2654 34.1366C93.7115 33.9764 95.233 33.5703 95.233 33.5703L98.7508 32.6094C98.7508 32.6094 100.673 32.1175 101.428 31.065C102.183 30.0183 102.475 28.0106 102.475 28.0106C102.475 28.0106 102.68 26.0601 102.52 25.4481C102.366 24.8361 101.788 24.1039 101.085 23.7893C100.381 23.4747 99.6489 23.2917 97.5267 23.3203C95.4046 23.3489 94.3522 23.4461 93.2768 23.8465C92.2015 24.2412 91.578 24.9619 91.1833 25.98C90.7543 26.9467 90.5026 29.0287 90.5026 29.0287Z" fill="#B3B2B1"/>
<path fill-rule="evenodd" clip-rule="evenodd" d="M112.707 33.4102L114.36 23.5034H111.431L102.314 33.2958L101.902 35.7782H109.875L109.292 39.2559L111.74 39.2616L112.318 35.7782L114.577 35.784L114.983 33.4102H112.707ZM110.27 33.4159L105.116 33.4102L111.391 26.7237L110.27 33.4159Z" fill="#B3B2B1"/>
<path fill-rule="evenodd" clip-rule="evenodd" d="M24.6929 24.8069H32.2032C32.2032 24.8069 33.8848 23.4456 35.0803 22.5704C36.2758 21.6953 38.4494 20.3168 38.4494 20.3168L34.2052 18.332C34.2052 18.332 30.6187 20.5513 29.0972 21.5981C27.6215 22.5647 24.6929 24.8069 24.6929 24.8069Z" fill="#B3B2B1"/>
<path fill-rule="evenodd" clip-rule="evenodd" d="M40.8355 18.9159L37.3521 16.5707C37.3521 16.5707 40.5037 14.7804 44.6965 13.1102C48.8835 11.44 51.12 10.7422 51.12 10.7422L51.8293 14.0654C51.8293 14.0654 47.7967 15.4153 45.4858 16.5078C43.0949 17.5259 40.8355 18.9159 40.8355 18.9159Z" fill="#B3B2B1"/>
<path fill-rule="evenodd" clip-rule="evenodd" d="M54.4048 13.339L53.7985 9.93568C53.7985 9.93568 58.0999 8.79171 62.0352 8.05957C65.9762 7.32743 71.1986 6.97852 71.1986 6.97852L69.4711 12.2351C69.4711 12.2351 64.878 11.6059 60.5652 12.195C57.2076 12.5954 54.4048 13.339 54.4048 13.339Z" fill="#B3B2B1"/>
<path fill-rule="evenodd" clip-rule="evenodd" d="M72.2035 12.681L75.1092 6.84101C75.1092 6.84101 81.4755 6.71518 86.9667 7.56743C92.4579 8.41397 97.48 9.7181 97.3713 9.7753L83.4489 17.0567C83.4489 17.0567 80.1943 14.9975 76.156 13.7334C73.868 13.0585 72.2035 12.681 72.2035 12.681Z" fill="#B3B2B1"/>
<path fill-rule="evenodd" clip-rule="evenodd" d="M85.9441 18.6416L89.0043 20.9639H114.155C114.155 20.9639 114.103 20.1516 113.434 18.9962C113.017 18.2755 112.256 17.5091 111.461 16.714C111.169 16.428 110.014 15.5243 109.144 14.958C106.925 13.5166 105.684 12.9618 103.379 11.915L85.9441 18.6416Z" fill="#B3B2B1"/>
<path d="M26.3243 27.8901C25.3805 27.8901 24.4882 28.2619 23.7275 28.6795L23.859 27.8901H21.3594L19.3574 39.1983H21.8628L22.9724 32.9351C23.2012 31.6652 24.1507 30.0923 26.004 30.0923L27.2967 30.0866L27.6857 27.8901H26.3243Z" fill="#D13239"/>
</svg>
