<svg width="156" height="51" viewBox="0 0 156 51" fill="none" xmlns="http://www.w3.org/2000/svg">
<path d="M32.7699 19.8761C33.0819 19.8338 33.9199 19.8348 34.2337 19.8566C36.0413 19.9867 37.7218 20.835 38.8998 22.212C41.655 25.3987 41.4378 31.3962 38.1537 34.1447C36.6808 35.3772 34.8824 35.8467 32.9847 35.7081C31.0132 35.5641 29.7674 34.5193 28.5375 33.0714L28.5453 34.9484L28.5511 39.9757L25.0306 39.9806C24.9555 33.4396 25.0221 26.7296 25.0326 20.1759L28.5668 20.1818V22.6076L28.6039 22.5548C29.6577 21.0779 30.9809 20.177 32.7699 19.8761ZM33.7875 32.5714C39.0486 31.2301 38.284 22.2418 32.1019 22.9415C26.4774 24.2086 27.6106 33.5028 33.7875 32.5714Z" fill="#12181F"/>
<path d="M140.949 10.2412C141.344 10.5459 141.97 17.2035 141.984 18.0753C143.94 18.9357 146.033 19.6738 147.992 20.5522C148.535 20.7957 148.992 20.9417 149.509 21.2645C147.049 22.148 144.354 23.5163 141.896 24.3329C141.866 26.8057 141.706 30.5263 141.503 32.9759C140.923 32.1159 139.363 30.4405 138.618 29.5943C137.898 28.7771 136.415 27.029 135.656 26.3795C134.927 26.6341 134.252 26.8363 133.513 27.0519C131.797 27.6215 129.954 28.1517 128.216 28.6812C129.406 27.6905 130.755 26.2323 131.86 25.1055C133.144 23.8169 134.437 22.5369 135.739 21.2651C134.927 20.4358 133.528 19.3235 132.637 18.5216C131.182 17.211 129.666 15.9101 128.173 14.6404C130.833 15.2622 133.522 15.7492 136.232 16.0991C137.656 14.6147 139.524 11.9262 140.949 10.2412Z" fill="#FEBF0C"/>
<path d="M76.8105 19.8877C78.72 19.8913 80.7826 20.0671 82.2139 21.496C84.2694 23.5486 83.923 26.3589 83.9195 29.0102L83.9107 35.3595C82.8038 35.3354 81.5844 35.3693 80.4696 35.3779L80.4714 33.5959C78.0791 35.7529 75.2548 36.4908 72.2134 34.864C71.6058 34.539 71.1622 33.9687 70.7532 33.4258C70.0675 32.2592 69.8783 30.9236 70.2274 29.6252C71.4392 25.1179 77.1481 25.6824 80.5399 26.5455C80.2551 21.7155 75.433 22.9119 72.342 23.9563C72.0281 23.0287 71.7228 22.0982 71.4263 21.1649C73.1668 20.3343 74.8972 19.9681 76.8105 19.8877Z" fill="#12181F"/>
<path d="M76.592 28.4062C78.1842 28.3524 79.0784 28.5649 80.573 28.987C80.5536 31.2629 80.0718 32.2625 77.786 32.9391C77.7165 32.9529 77.6479 32.9646 77.5776 32.9743C76.0346 33.1855 73.8092 32.9848 73.5868 31.0313C73.5235 30.4933 73.6795 29.9525 74.0197 29.531C74.6662 28.7189 75.6296 28.5171 76.592 28.4062Z" fill="white"/>
<path d="M13.5396 14.8743C16.3187 14.6651 19.3029 15.6579 21.4465 17.4353C20.864 18.163 20.0956 19.3293 19.5304 20.1213C17.8344 18.9285 16.2052 18.0615 14.0786 18.0299C12.5012 18.0065 10.816 18.7193 10.7928 20.5217C10.7671 22.5161 13.3355 23.0316 14.8366 23.4351C16.8951 23.9885 19.1667 24.4619 20.7452 26.0067C22.7711 28.0454 22.4895 31.912 20.4105 33.8295C18.486 35.6046 16.3322 35.7036 13.8602 35.67C10.9344 35.3701 8.64462 34.4592 6.4436 32.4625C7.16251 31.6209 7.86849 30.7684 8.56119 29.9051C8.63073 29.9686 8.70159 30.0307 8.77369 30.0914C10.7213 31.7314 13.0052 32.7535 15.5744 32.5237C17.1765 32.3804 18.7304 31.4379 18.5064 29.675C18.1877 27.1666 13.8198 27.0372 11.944 26.2785C10.8091 25.8195 9.88435 25.6205 8.94126 24.7971C6.65188 22.9735 6.6925 19.2457 8.53139 17.1071C9.81296 15.6164 11.6235 15.0553 13.5396 14.8743Z" fill="#12181F"/>
<path d="M60.081 19.8727C66.1755 19.4716 68.5769 23.3482 68.4863 28.9928C64.7382 29.0202 60.9663 28.9503 57.2206 29.0114C57.9011 32.4611 60.9156 33.7666 64.0898 32.2711C64.7179 31.9752 65.1912 31.5155 65.7089 31.0553C66.2636 31.4307 67.2685 32.416 67.7968 32.9069C66.348 34.3671 65.164 35.2847 63.0654 35.6315C58.6658 36.3584 54.5216 33.8348 53.8232 29.2907C53.1447 24.8751 55.4478 20.5982 60.081 19.8727ZM65.0351 26.6657C64.4426 24.1241 63.4196 22.4334 60.4482 22.7702C58.3104 23.4018 57.5612 24.5913 57.1826 26.695C58.7346 26.6788 60.2867 26.6715 61.8388 26.6725C62.8464 26.6718 64.0436 26.7025 65.0351 26.6657Z" fill="#12181F"/>
<path d="M108.703 19.8748C114.797 19.4555 117.101 23.3953 117.011 28.9939L105.828 28.9988C106.477 32.5067 109.54 33.7604 112.713 32.2713C113.342 31.9764 113.834 31.5186 114.363 31.0711C114.83 31.3621 115.988 32.4836 116.436 32.9012C115.231 34.3651 113.53 35.3363 111.658 35.6307C100.421 37.3316 99.1725 21.2564 108.703 19.8748ZM113.632 26.66C113.07 24.1836 111.985 22.3774 109.066 22.6795C106.954 23.3164 106.16 24.5386 105.766 26.617C107.336 26.6381 108.906 26.6477 110.475 26.6453C111.527 26.674 112.58 26.6788 113.632 26.66Z" fill="#12181F"/>
<path d="M87.2214 14.2852L90.7319 14.2832L90.753 26.864C92.8516 24.8118 94.9203 22.2625 97.0567 20.1731L101.266 20.1863C99.667 22.0055 97.0426 24.5002 95.2685 26.319C96.5011 28.1289 97.7469 29.9303 99.005 31.7229C99.7364 32.8263 100.732 34.2798 101.533 35.3241C100.223 35.3703 98.765 35.3465 97.4444 35.3533C96.0659 33.5677 94.2187 30.6993 92.8894 28.7874C92.2678 29.4004 91.299 30.3725 90.775 31.0345C90.6686 32.2069 90.7275 34.1327 90.7319 35.3592C89.5608 35.3403 88.3898 35.3441 87.2196 35.3706L87.2214 14.2852Z" fill="#12181F"/>
<path d="M51.5654 19.878L52.4106 19.8604L52.3976 23.5842C47.2046 23.7154 47.0066 27.4985 47.0149 31.665L47.0167 35.418C45.8553 35.4331 44.6651 35.42 43.5012 35.4208L43.4919 33.2878L43.505 20.17L47.0188 20.1776C47.0185 21.2755 47.0254 22.3733 47.0393 23.471C48.0654 21.421 49.1882 20.1613 51.5654 19.878Z" fill="#12181F"/>
<path d="M127.875 19.8775L128.667 19.8677L128.649 23.5755C123.48 23.8063 123.248 27.3904 123.249 31.6246L123.255 35.3953L119.798 35.4046L119.79 33.4969C119.787 29.0715 119.753 24.597 119.804 20.1756L123.313 20.1779C123.305 21.257 123.314 22.3363 123.341 23.4151C124.358 21.3752 125.547 20.1602 127.875 19.8775Z" fill="#12181F"/>
</svg>
