<svg width="93" height="51" viewBox="0 0 93 51" fill="none" xmlns="http://www.w3.org/2000/svg">
<path fill-rule="evenodd" clip-rule="evenodd" d="M86.2366 25.6637C86.2366 20.0012 83.4939 15.5332 78.2517 15.5332C72.9874 15.5332 69.8022 20.0012 69.8022 25.6194C69.8022 32.2772 73.5625 35.6393 78.9595 35.6393C81.5916 35.6393 83.5823 35.0421 85.0864 34.2016V29.7778C83.5823 30.5298 81.8571 30.9943 79.6673 30.9943C77.5217 30.9943 75.6195 30.2423 75.3762 27.6323H86.1924C86.1924 27.3447 86.2366 26.1945 86.2366 25.6637ZM75.3099 23.5624C75.3099 21.0629 76.8361 20.0233 78.2295 20.0233C79.5788 20.0233 81.0165 21.0629 81.0165 23.5624H75.3099Z" fill="#635BFF"/>
<path fill-rule="evenodd" clip-rule="evenodd" d="M61.2625 15.5332C59.0948 15.5332 57.7013 16.5507 56.9271 17.2585L56.6396 15.8871H51.7734V41.6778L57.3032 40.5055L57.3253 34.2458C58.1216 34.8209 59.2939 35.6393 61.2403 35.6393C65.1996 35.6393 68.805 32.4542 68.805 25.4425C68.7829 19.028 65.1333 15.5332 61.2625 15.5332ZM59.9353 30.7731C58.6303 30.7731 57.8561 30.3086 57.3253 29.7335L57.3032 21.5274C57.8783 20.886 58.6745 20.4436 59.9353 20.4436C61.9481 20.4436 63.3416 22.6997 63.3416 25.5973C63.3416 28.5612 61.9703 30.7731 59.9353 30.7731Z" fill="#635BFF"/>
<path fill-rule="evenodd" clip-rule="evenodd" d="M44.1672 14.2285L49.7191 13.0341V8.54395L44.1672 9.71625V14.2285Z" fill="#635BFF"/>
<path d="M49.7191 15.9082H44.1672V35.2623H49.7191V15.9082Z" fill="#635BFF"/>
<path fill-rule="evenodd" clip-rule="evenodd" d="M38.2175 17.5451L37.8636 15.9083H33.0859V35.2624H38.6157V22.1459C39.9207 20.4427 42.1326 20.7524 42.8183 20.9957V15.9083C42.1105 15.6429 39.5225 15.1563 38.2175 17.5451Z" fill="#635BFF"/>
<path fill-rule="evenodd" clip-rule="evenodd" d="M27.1579 11.1094L21.7609 12.2596L21.7388 29.9768C21.7388 33.2504 24.194 35.6614 27.4676 35.6614C29.2813 35.6614 30.6085 35.3296 31.3384 34.9315V30.4413C30.6306 30.7289 27.1358 31.7463 27.1358 28.4727V20.6205H31.3384V15.9092H27.1358L27.1579 11.1094Z" fill="#635BFF"/>
<path fill-rule="evenodd" clip-rule="evenodd" d="M12.2042 21.5274C12.2042 20.6648 12.912 20.333 14.0843 20.333C15.7654 20.333 17.8888 20.8417 19.5698 21.7486V16.5507C17.734 15.8207 15.9202 15.5332 14.0843 15.5332C9.59421 15.5332 6.60815 17.8778 6.60815 21.7929C6.60815 27.8977 15.0133 26.9244 15.0133 29.5566C15.0133 30.5741 14.1286 30.9059 12.8899 30.9059C11.0541 30.9059 8.70945 30.1538 6.85146 29.1363V34.4006C8.90852 35.2854 10.9877 35.6614 12.8899 35.6614C17.4907 35.6614 20.6537 33.3832 20.6537 29.4239C20.6315 22.8324 12.2042 24.0047 12.2042 21.5274Z" fill="#635BFF"/>
</svg>
